<mxfile host="Electron" agent="Mozilla/5.0 (Windows NT 10.0; Win64; x64) AppleWebKit/537.36 (KHTML, like Gecko) draw.io/26.0.16 Chrome/132.0.6834.196 Electron/34.2.0 Safari/537.36" version="26.0.16">
  <diagram id="hdQLrgUGndHD3l6Y_9LG" name="С паттерном">
    <mxGraphModel dx="1235" dy="731" grid="1" gridSize="10" guides="1" tooltips="1" connect="1" arrows="1" fold="1" page="1" pageScale="1" pageWidth="827" pageHeight="1169" math="0" shadow="0">
      <root>
        <mxCell id="0" />
        <mxCell id="1" parent="0" />
        <mxCell id="YastWwo-cKkG9JTy0XdU-19" style="edgeStyle=orthogonalEdgeStyle;rounded=0;orthogonalLoop=1;jettySize=auto;html=1;endSize=16;endArrow=open;endFill=0;" edge="1" parent="1" source="YastWwo-cKkG9JTy0XdU-1" target="YastWwo-cKkG9JTy0XdU-41">
          <mxGeometry relative="1" as="geometry">
            <mxPoint x="520" y="280" as="targetPoint" />
            <Array as="points" />
          </mxGeometry>
        </mxCell>
        <mxCell id="YastWwo-cKkG9JTy0XdU-36" style="edgeStyle=orthogonalEdgeStyle;rounded=0;orthogonalLoop=1;jettySize=auto;html=1;endSize=16;endArrow=open;endFill=0;" edge="1" parent="1" source="YastWwo-cKkG9JTy0XdU-1" target="YastWwo-cKkG9JTy0XdU-35">
          <mxGeometry relative="1" as="geometry">
            <Array as="points">
              <mxPoint x="160" y="140" />
            </Array>
          </mxGeometry>
        </mxCell>
        <mxCell id="YastWwo-cKkG9JTy0XdU-37" style="edgeStyle=orthogonalEdgeStyle;rounded=0;orthogonalLoop=1;jettySize=auto;html=1;endSize=16;endArrow=open;endFill=0;" edge="1" parent="1" source="YastWwo-cKkG9JTy0XdU-1" target="YastWwo-cKkG9JTy0XdU-33">
          <mxGeometry relative="1" as="geometry">
            <Array as="points">
              <mxPoint x="160" y="540" />
              <mxPoint x="440" y="540" />
            </Array>
          </mxGeometry>
        </mxCell>
        <mxCell id="YastWwo-cKkG9JTy0XdU-1" value="DocumentManager" style="swimlane;fontStyle=1;align=center;verticalAlign=top;childLayout=stackLayout;horizontal=1;startSize=26;horizontalStack=0;resizeParent=1;resizeParentMax=0;resizeLast=0;collapsible=1;marginBottom=0;whiteSpace=wrap;html=1;" vertex="1" parent="1">
          <mxGeometry x="30" y="195" width="260" height="130" as="geometry" />
        </mxCell>
        <mxCell id="YastWwo-cKkG9JTy0XdU-2" value="+ image: Image&lt;div&gt;richTextBox: RichTextBox&lt;/div&gt;" style="text;strokeColor=none;fillColor=none;align=left;verticalAlign=top;spacingLeft=4;spacingRight=4;overflow=hidden;rotatable=0;points=[[0,0.5],[1,0.5]];portConstraint=eastwest;whiteSpace=wrap;html=1;" vertex="1" parent="YastWwo-cKkG9JTy0XdU-1">
          <mxGeometry y="26" width="260" height="34" as="geometry" />
        </mxCell>
        <mxCell id="YastWwo-cKkG9JTy0XdU-3" value="" style="line;strokeWidth=1;fillColor=none;align=left;verticalAlign=middle;spacingTop=-1;spacingLeft=3;spacingRight=3;rotatable=0;labelPosition=right;points=[];portConstraint=eastwest;strokeColor=inherit;" vertex="1" parent="YastWwo-cKkG9JTy0XdU-1">
          <mxGeometry y="60" width="260" height="8" as="geometry" />
        </mxCell>
        <mxCell id="YastWwo-cKkG9JTy0XdU-4" value="&lt;div&gt;DocumentManager(richTextBox: RichTextBox)&lt;/div&gt;AddImage(): Boolean&lt;div&gt;SaveDocument()&lt;/div&gt;" style="text;strokeColor=none;fillColor=none;align=left;verticalAlign=top;spacingLeft=4;spacingRight=4;overflow=hidden;rotatable=0;points=[[0,0.5],[1,0.5]];portConstraint=eastwest;whiteSpace=wrap;html=1;" vertex="1" parent="YastWwo-cKkG9JTy0XdU-1">
          <mxGeometry y="68" width="260" height="62" as="geometry" />
        </mxCell>
        <mxCell id="YastWwo-cKkG9JTy0XdU-17" style="edgeStyle=orthogonalEdgeStyle;rounded=0;orthogonalLoop=1;jettySize=auto;html=1;endSize=16;endArrow=block;endFill=0;" edge="1" parent="1" source="YastWwo-cKkG9JTy0XdU-9" target="YastWwo-cKkG9JTy0XdU-41">
          <mxGeometry relative="1" as="geometry">
            <mxPoint x="600" y="306" as="targetPoint" />
            <Array as="points">
              <mxPoint x="440" y="350" />
              <mxPoint x="610" y="350" />
            </Array>
          </mxGeometry>
        </mxCell>
        <mxCell id="YastWwo-cKkG9JTy0XdU-18" style="edgeStyle=orthogonalEdgeStyle;rounded=0;orthogonalLoop=1;jettySize=auto;html=1;endSize=16;endArrow=block;endFill=0;" edge="1" parent="1" source="YastWwo-cKkG9JTy0XdU-13" target="YastWwo-cKkG9JTy0XdU-41">
          <mxGeometry relative="1" as="geometry">
            <mxPoint x="600" y="306" as="targetPoint" />
            <Array as="points">
              <mxPoint x="760" y="350" />
              <mxPoint x="610" y="350" />
            </Array>
          </mxGeometry>
        </mxCell>
        <mxCell id="YastWwo-cKkG9JTy0XdU-38" style="edgeStyle=orthogonalEdgeStyle;rounded=0;orthogonalLoop=1;jettySize=auto;html=1;endSize=16;endArrow=open;endFill=0;" edge="1" parent="1" source="YastWwo-cKkG9JTy0XdU-9" target="YastWwo-cKkG9JTy0XdU-33">
          <mxGeometry relative="1" as="geometry">
            <mxPoint x="600" y="560" as="targetPoint" />
            <Array as="points">
              <mxPoint x="440" y="530" />
              <mxPoint x="440" y="530" />
            </Array>
          </mxGeometry>
        </mxCell>
        <mxCell id="YastWwo-cKkG9JTy0XdU-9" value="PDFDocumentSaver" style="swimlane;fontStyle=1;align=center;verticalAlign=top;childLayout=stackLayout;horizontal=1;startSize=26;horizontalStack=0;resizeParent=1;resizeParentMax=0;resizeLast=0;collapsible=1;marginBottom=0;whiteSpace=wrap;html=1;" vertex="1" parent="1">
          <mxGeometry x="310" y="384" width="280" height="110" as="geometry" />
        </mxCell>
        <mxCell id="YastWwo-cKkG9JTy0XdU-10" value="richTextBox: RichTextBox" style="text;strokeColor=none;fillColor=none;align=left;verticalAlign=top;spacingLeft=4;spacingRight=4;overflow=hidden;rotatable=0;points=[[0,0.5],[1,0.5]];portConstraint=eastwest;whiteSpace=wrap;html=1;" vertex="1" parent="YastWwo-cKkG9JTy0XdU-9">
          <mxGeometry y="26" width="280" height="26" as="geometry" />
        </mxCell>
        <mxCell id="YastWwo-cKkG9JTy0XdU-11" value="" style="line;strokeWidth=1;fillColor=none;align=left;verticalAlign=middle;spacingTop=-1;spacingLeft=3;spacingRight=3;rotatable=0;labelPosition=right;points=[];portConstraint=eastwest;strokeColor=inherit;" vertex="1" parent="YastWwo-cKkG9JTy0XdU-9">
          <mxGeometry y="52" width="280" height="8" as="geometry" />
        </mxCell>
        <mxCell id="YastWwo-cKkG9JTy0XdU-12" value="PDFDocumentSaver(richTextBox: RichTextBox, image: Image)&lt;div&gt;SaveDocument()&lt;/div&gt;" style="text;strokeColor=none;fillColor=none;align=left;verticalAlign=top;spacingLeft=4;spacingRight=4;overflow=hidden;rotatable=0;points=[[0,0.5],[1,0.5]];portConstraint=eastwest;whiteSpace=wrap;html=1;" vertex="1" parent="YastWwo-cKkG9JTy0XdU-9">
          <mxGeometry y="60" width="280" height="50" as="geometry" />
        </mxCell>
        <mxCell id="YastWwo-cKkG9JTy0XdU-39" style="edgeStyle=orthogonalEdgeStyle;rounded=0;orthogonalLoop=1;jettySize=auto;html=1;endSize=16;endArrow=open;endFill=0;" edge="1" parent="1" source="YastWwo-cKkG9JTy0XdU-13" target="YastWwo-cKkG9JTy0XdU-33">
          <mxGeometry relative="1" as="geometry">
            <mxPoint x="600" y="560" as="targetPoint" />
            <Array as="points">
              <mxPoint x="760" y="540" />
              <mxPoint x="440" y="540" />
            </Array>
          </mxGeometry>
        </mxCell>
        <mxCell id="YastWwo-cKkG9JTy0XdU-13" value="PNGDocumentSaver" style="swimlane;fontStyle=1;align=center;verticalAlign=top;childLayout=stackLayout;horizontal=1;startSize=26;horizontalStack=0;resizeParent=1;resizeParentMax=0;resizeLast=0;collapsible=1;marginBottom=0;whiteSpace=wrap;html=1;" vertex="1" parent="1">
          <mxGeometry x="610" y="384" width="280" height="110" as="geometry" />
        </mxCell>
        <mxCell id="YastWwo-cKkG9JTy0XdU-14" value="richTextBox: RichTextBox" style="text;strokeColor=none;fillColor=none;align=left;verticalAlign=top;spacingLeft=4;spacingRight=4;overflow=hidden;rotatable=0;points=[[0,0.5],[1,0.5]];portConstraint=eastwest;whiteSpace=wrap;html=1;" vertex="1" parent="YastWwo-cKkG9JTy0XdU-13">
          <mxGeometry y="26" width="280" height="26" as="geometry" />
        </mxCell>
        <mxCell id="YastWwo-cKkG9JTy0XdU-15" value="" style="line;strokeWidth=1;fillColor=none;align=left;verticalAlign=middle;spacingTop=-1;spacingLeft=3;spacingRight=3;rotatable=0;labelPosition=right;points=[];portConstraint=eastwest;strokeColor=inherit;" vertex="1" parent="YastWwo-cKkG9JTy0XdU-13">
          <mxGeometry y="52" width="280" height="8" as="geometry" />
        </mxCell>
        <mxCell id="YastWwo-cKkG9JTy0XdU-16" value="PNGDocumentSaver(richTextBox: RichTextBox, image: Image)&lt;div&gt;SaveDocument()&lt;/div&gt;" style="text;strokeColor=none;fillColor=none;align=left;verticalAlign=top;spacingLeft=4;spacingRight=4;overflow=hidden;rotatable=0;points=[[0,0.5],[1,0.5]];portConstraint=eastwest;whiteSpace=wrap;html=1;" vertex="1" parent="YastWwo-cKkG9JTy0XdU-13">
          <mxGeometry y="60" width="280" height="50" as="geometry" />
        </mxCell>
        <mxCell id="YastWwo-cKkG9JTy0XdU-20" value="&lt;font&gt;+ imp&lt;/font&gt;" style="text;html=1;align=center;verticalAlign=middle;resizable=0;points=[];autosize=1;strokeColor=none;fillColor=none;" vertex="1" parent="1">
          <mxGeometry x="460" y="230" width="50" height="30" as="geometry" />
        </mxCell>
        <mxCell id="YastWwo-cKkG9JTy0XdU-33" value="&lt;b&gt;RichTextBox&lt;/b&gt;" style="html=1;whiteSpace=wrap;" vertex="1" parent="1">
          <mxGeometry x="380" y="570" width="110" height="50" as="geometry" />
        </mxCell>
        <mxCell id="YastWwo-cKkG9JTy0XdU-35" value="&lt;b&gt;Image&lt;/b&gt;" style="html=1;whiteSpace=wrap;" vertex="1" parent="1">
          <mxGeometry x="359" y="110" width="110" height="50" as="geometry" />
        </mxCell>
        <mxCell id="YastWwo-cKkG9JTy0XdU-45" style="edgeStyle=orthogonalEdgeStyle;rounded=0;orthogonalLoop=1;jettySize=auto;html=1;endArrow=open;endFill=0;endSize=16;" edge="1" parent="1" source="YastWwo-cKkG9JTy0XdU-41" target="YastWwo-cKkG9JTy0XdU-35">
          <mxGeometry relative="1" as="geometry">
            <Array as="points">
              <mxPoint x="600" y="140" />
            </Array>
          </mxGeometry>
        </mxCell>
        <mxCell id="YastWwo-cKkG9JTy0XdU-41" value="&lt;i&gt;DocumentSaver&lt;/i&gt;" style="swimlane;fontStyle=1;align=center;verticalAlign=top;childLayout=stackLayout;horizontal=1;startSize=26;horizontalStack=0;resizeParent=1;resizeParentMax=0;resizeLast=0;collapsible=1;marginBottom=0;whiteSpace=wrap;html=1;" vertex="1" parent="1">
          <mxGeometry x="520" y="210" width="180" height="100" as="geometry" />
        </mxCell>
        <mxCell id="YastWwo-cKkG9JTy0XdU-42" value="# image: Image" style="text;strokeColor=none;fillColor=none;align=left;verticalAlign=top;spacingLeft=4;spacingRight=4;overflow=hidden;rotatable=0;points=[[0,0.5],[1,0.5]];portConstraint=eastwest;whiteSpace=wrap;html=1;" vertex="1" parent="YastWwo-cKkG9JTy0XdU-41">
          <mxGeometry y="26" width="180" height="26" as="geometry" />
        </mxCell>
        <mxCell id="YastWwo-cKkG9JTy0XdU-43" value="" style="line;strokeWidth=1;fillColor=none;align=left;verticalAlign=middle;spacingTop=-1;spacingLeft=3;spacingRight=3;rotatable=0;labelPosition=right;points=[];portConstraint=eastwest;strokeColor=inherit;" vertex="1" parent="YastWwo-cKkG9JTy0XdU-41">
          <mxGeometry y="52" width="180" height="8" as="geometry" />
        </mxCell>
        <mxCell id="YastWwo-cKkG9JTy0XdU-44" value="DocumentSaver(image: Image)&lt;div&gt;&lt;i&gt;SaveDocument()&lt;/i&gt;&lt;/div&gt;" style="text;strokeColor=none;fillColor=none;align=left;verticalAlign=top;spacingLeft=4;spacingRight=4;overflow=hidden;rotatable=0;points=[[0,0.5],[1,0.5]];portConstraint=eastwest;whiteSpace=wrap;html=1;" vertex="1" parent="YastWwo-cKkG9JTy0XdU-41">
          <mxGeometry y="60" width="180" height="40" as="geometry" />
        </mxCell>
      </root>
    </mxGraphModel>
  </diagram>
</mxfile>
